# xmcd
#
# Track frame offsets:
# 150
# 21918
# 37399
# 59645
# 75633
# 93428
# 114297
# 134045
# 136874
# 153342
#
# Disc length: 2279 seconds
#
# Revision: 1
# Processed by: cddbd v1.5.1PL0 Copyright (c) Steve Scherf et al.
# Submitted via: CedeCatalogueitor 2.6.0.4 http://personales.ya.com/cdcatalogueitor
#
DISCID=8908e50a
DTITLE=Eva Cassidy - No Boundaries
DYEAR=1900
DGENRE=
TTITLE0=Emotional Step
TTITLE1=The Waiting Is Over
TTITLE2=You Are
TTITLE3=Natural Woman
TTITLE4=Little Children
TTITLE5=I've Got This Feeling
TTITLE6=When It's Too Late
TTITLE7=On The Inside
TTITLE8=Natural Woman
TTITLE9=Little Children
EXTD=
EXTT0=
EXTT1=
EXTT2=
EXTT3=
EXTT4=
EXTT5=
EXTT6=
EXTT7=
EXTT8=
EXTT9=
PLAYORDER=
